<?xml version="1.0" standalone="no"?>
<!DOCTYPE svg PUBLIC "-//W3C//DTD SVG 20010904//EN"
 "http://www.w3.org/TR/2001/REC-SVG-20010904/DTD/svg10.dtd">
<svg version="1.0" xmlns="http://www.w3.org/2000/svg"
 width="500.000000pt" height="500.000000pt" viewBox="0 0 500.000000 500.000000"
 preserveAspectRatio="xMidYMid meet">
<metadata>
Created by potrace 1.11, written by Peter Selinger 2001-2013
</metadata>
<g transform="translate(0.000000,500.000000) scale(0.100000,-0.100000)"
fill="#000000" stroke="none">
<path d="M2185 4985 c-721 -96 -1347 -481 -1756 -1080 -197 -288 -347 -661
-395 -985 -3 -19 -7 -46 -10 -60 -20 -113 -27 -487 -11 -623 21 -188 52 -333
114 -522 32 -101 125 -325 144 -351 5 -6 23 -37 40 -70 164 -311 445 -622 756
-841 246 -172 581 -324 833 -378 8 -2 49 -11 90 -20 41 -9 91 -18 110 -21 19
-3 46 -7 59 -9 184 -31 564 -25 751 11 14 3 41 7 60 10 103 14 350 88 490 146
85 36 292 141 332 169 14 11 29 19 32 19 6 0 97 61 106 70 3 3 21 17 40 30 69
47 256 209 330 286 79 82 231 268 251 307 7 12 15 24 19 27 4 3 38 57 76 120
174 287 286 612 334 965 14 100 17 181 15 355 -2 124 -6 243 -10 265 -47 294
-94 469 -181 673 -251 588 -713 1056 -1299 1315 -100 45 -313 120 -370 131
-16 3 -59 13 -95 21 -63 14 -93 20 -162 30 -18 3 -60 9 -93 14 -86 13 -494 10
-600 -4z"/>
</g>
</svg>
