<?xml version="1.0" encoding="utf-8"?>
<!-- Generator: Adobe Illustrator 18.1.1, SVG Export Plug-In . SVG Version: 6.00 Build 0)  -->
<svg version="1.1" xmlns="http://www.w3.org/2000/svg" xmlns:xlink="http://www.w3.org/1999/xlink" x="0px" y="0px"
	 viewBox="0 0 66 66" enable-background="new 0 0 66 66" xml:space="preserve">
<g id="Layer_1" display="none">
	<path display="inline" fill="#231F20" d="M6.6,33c0-0.6,0.4-1,1-1H32V7.6c0-0.6,0.4-1,1-1s1,0.4,1,1V32h24.4c0.6,0,1,0.4,1,1
		s-0.4,1-1,1H34v24.4c0,0.6-0.4,1-1,1s-1-0.4-1-1V34H7.6C7.1,34,6.6,33.6,6.6,33z"/>
</g>
<g id="Layer_2" display="none">
	<path display="inline" fill="#231F20" d="M6.3,33c0-0.6,0.4-1,1-1h51.4c0.6,0,1,0.4,1,1s-0.4,1-1,1H7.3C6.8,34,6.3,33.6,6.3,33z"/>
</g>
<g id="Layer_3" display="none">
	<path display="inline" fill="#231F20" d="M48.8,2.1c-0.4-0.4-1-0.4-1.4,0L17.2,32.3c-0.2,0.2-0.3,0.4-0.3,0.7s0.1,0.5,0.3,0.7
		l30.2,30.2c0.2,0.2,0.5,0.3,0.7,0.3s0.5-0.1,0.7-0.3c0.4-0.4,0.4-1,0-1.4L19.3,33L48.8,3.5C49.2,3.1,49.2,2.5,48.8,2.1z"/>
</g>
<g id="Layer_4" display="none">
	<path display="inline" fill="#231F20" d="M62.5,48.8c0.2,0.2,0.5,0.3,0.7,0.3s0.5-0.1,0.7-0.3c0.4-0.4,0.4-1,0-1.4L33.7,17.2
		c-0.4-0.4-1-0.4-1.4,0L2.1,47.4c-0.4,0.4-0.4,1,0,1.4s1,0.4,1.4,0L33,19.3L62.5,48.8z"/>
</g>
<g id="Layer_5" display="none">
	<path display="inline" fill="#231F20" d="M59,48.8V61H7V48.8c0-0.6,0.4-1,1-1s1,0.4,1,1V59h48V48.8c0-0.6,0.4-1,1-1
		S59,48.3,59,48.8z M33,49.8c0.6,0,1-0.4,1-1V8.5l12.5,12.3c0.2,0.2,0.4,0.3,0.6,0.3c0.3,0,0.5-0.1,0.7-0.3c0.4-0.4,0.4-1,0-1.4
		L33.4,5.4l0,0l-0.7-0.7L32,5.4l0,0L17.6,19.3c-0.4,0.4-0.4,1,0,1.4c0.4,0.4,1.2,0.4,1.6,0L32,8.5v40.4C32,49.4,32.4,49.8,33,49.8z"
		/>
</g>
<g id="Layer_6" display="none">
	<path display="inline" fill="#231F20" d="M59,48.6V61H7V48.6c0-0.6,0.4-1,1-1s1,0.4,1,1V59h48V48.6c0-0.6,0.4-1,1-1
		S59,48.1,59,48.6z M33,4.9c-0.6,0-1,0.4-1,1v40.4L19.4,34c-0.4-0.4-1-0.4-1.4,0c-0.4,0.4-0.4,1,0,1.4l14.4,13.9l0,0l0.7,0.7
		l15.1-14.6c0.4-0.4,0.4-1,0-1.4c-0.4-0.4-1.1-0.4-1.5,0L34,46.3V5.9C34,5.4,33.6,4.9,33,4.9z"/>
</g>
<g id="Layer_7" display="none">
	<g display="inline">
	</g>
	<g display="inline">
		<path fill="#231F20" d="M26.2,50.2c6.1,0,11.9-2.2,16.3-6.3L62.6,64c0.2,0.2,0.5,0.3,0.7,0.3s0.5-0.1,0.7-0.3c0.4-0.4,0.4-1,0-1.4
			L44,42.5c8.8-9.5,8.6-24.4-0.6-33.6c-4.6-4.6-10.7-7.1-17.1-7.1c-6.5,0-12.6,2.5-17.1,7.1c-9.5,9.5-9.5,24.8,0,34.3
			C13.7,47.7,19.8,50.2,26.2,50.2z M10.5,10.2c4.2-4.2,9.8-6.5,15.7-6.5c5.9,0,11.5,2.3,15.7,6.5c8.7,8.7,8.7,22.8,0,31.5
			c-4.2,4.2-9.8,6.5-15.7,6.5c-5.9,0-11.5-2.3-15.7-6.5C1.8,33,1.8,18.9,10.5,10.2z"/>
		<path fill="#231F20" d="M18,27h7v7.3c0,0.6,0.4,1,1,1s1-0.4,1-1V27h7c0.6,0,1-0.4,1-1s-0.4-1-1-1h-7v-6.7c0-0.6-0.4-1-1-1
			s-1,0.4-1,1V25h-7c-0.6,0-1,0.4-1,1S17.4,27,18,27z"/>
	</g>
</g>
<g id="Layer_8" display="none">
	<g display="inline">
		<path fill="#231F20" d="M44.1,42.7c8.8-9.5,8.6-24.4-0.6-33.6C38.9,4.5,32.8,2,26.3,2C19.9,2,13.8,4.5,9.2,9.1
			c-9.5,9.5-9.5,24.8,0,34.3c4.6,4.6,10.7,7.1,17.1,7.1c6.1,0,11.9-2.2,16.3-6.3l19.5,19.5c0.2,0.2,0.5,0.3,0.7,0.3s0.5-0.1,0.7-0.3
			c0.4-0.4,0.4-1,0-1.4L44.1,42.7z M10.6,42c-8.7-8.7-8.7-22.8,0-31.5C14.8,6.3,20.4,4,26.3,4c5.9,0,11.5,2.3,15.7,6.5
			c8.7,8.7,8.7,22.8,0,31.5c-4.2,4.2-9.8,6.5-15.7,6.5C20.4,48.5,14.8,46.2,10.6,42z"/>
		<path fill="#231F20" d="M35,25H18c-0.6,0-1,0.4-1,1s0.4,1,1,1h17c0.6,0,1-0.4,1-1S35.6,25,35,25z"/>
	</g>
</g>
<g id="Layer_9" display="none">
	<g display="inline">
		<path fill="#231F20" d="M27,56c0.6,0,1-0.4,1-1V21c0-0.6-0.4-1-1-1s-1,0.4-1,1v34C26,55.6,26.4,56,27,56z"/>
		<path fill="#231F20" d="M39,56c0.6,0,1-0.4,1-1V21c0-0.6-0.4-1-1-1s-1,0.4-1,1v34C38,55.6,38.4,56,39,56z"/>
		<path fill="#231F20" d="M55,9H41V5.2C41,2.9,39.1,1,36.8,1h-7.5C26.9,1,25,2.9,25,5.2V9H11c-0.6,0-1,0.4-1,1s0.4,1,1,1h3v49.8
			c0,2.3,1.9,4.2,4.2,4.2h29.5c2.3,0,4.2-1.9,4.2-4.2V11h3c0.6,0,1-0.4,1-1S55.6,9,55,9z M27,5.2C27,4,28,3,29.2,3h7.5
			C38,3,39,4,39,5.2V9H27V5.2z M50,60.8c0,1.2-1,2.2-2.2,2.2H18.2C17,63,16,62,16,60.8V11h34V60.8z"/>
	</g>
</g>
<g id="Layer_10" display="none">
	<path display="inline" fill="#231F20" d="M27,63c0.1,0,1.1,0,2.7,0H44l6.9,0c0.9,0,1.6,0,2.1,0c2.5,0,4.7-0.9,5.7-2.4
		c1.5-2.1,1.5-4.3,1.4-5.5c1.2-1.3,1.8-3.3,1.9-5.9c0-1-0.1-1.7-0.4-2.4c0.9-1.1,1.8-2.8,1.9-4.9c0.1-1.8-0.3-3.1-0.7-4.1
		c0.6-0.9,1.2-2.3,1.2-4.2c0.1-5.9-5.3-8.5-9-8.7l-7.9,0.1c0.1-0.3,0.3-0.6,0.4-0.8c0.4-0.5,2.6-3.3,4.4-8.7
		c2.3-6.9-3.6-11.7-3.8-11.9l-0.4-0.3l-0.1-0.1C47.3,3.3,46.5,3,45.4,3c-0.9,0-1.8,0.2-2.6,0.7c-1.6,1-2.6,2.8-2.9,5.3
		c-0.5,4.6-4.4,8.8-6.7,10.5c-0.3,0.2-0.6,0.4-0.7,0.6c-1.4,1.3-2.7,3.9-3.9,6.3l-0.5,1c-0.6,1.3-2.4,3.4-3.4,4.4c-0.6,0-1.3,0-2,0
		C22.4,30.5,21.7,29,20,29H6c-2,0-4,2-4,4.1v26.2c0,2,1.8,3.7,4,3.7H27z M21.4,33.8l0.7,0c1,0,2.4,0,3.1,0l0.4,0l0.3-0.2
		c1.1-0.9,3.3-3.5,4.1-5.2l0.5-1c0.9-2,2.2-4.7,3.4-5.7c0.1-0.1,0.4-0.3,0.6-0.5c0.7-0.5,6.7-5.4,7.4-11.9c0.2-1.9,0.9-3.2,2-3.8
		c0.5-0.3,1-0.4,1.6-0.4c0.6,0,1.1,0.2,1.3,0.2l0.2,0.1c0.5,0.5,4.9,4.3,3.1,9.7c-1.8,5.2-3.8,7.8-4.1,8.1c-0.4,0.6-1.4,2.2-0.9,3.4
		l0.3,0.5l0.8,0l8.8-0.1c2.5,0.2,7.2,1.8,7.1,6.7c0,1.7-0.7,2.9-1.2,3.5l-0.4,0.5l0.4,0.6c0.4,0.7,0.9,1.8,0.8,3.5
		c-0.1,1.9-1,3.4-1.7,4.1l-0.5,0.5l0.3,0.7c0.3,0.7,0.5,1.3,0.5,2.1c-0.1,2.9-0.9,4.3-1.6,4.9l-0.4,0.4L58,55
		c0.1,0.6,0.4,2.6-0.9,4.5C56.6,60.2,55.2,61,53,61c-0.5,0-1.2,0-2.1,0L44,61H29.7c-1.6,0-2.6,0-2.7,0h-6V32.6
		c0.1,0.2,0.1,0.4,0.2,0.5L21.4,33.8z M4,59.3V33.1C4,32.1,5.1,31,6,31h13v30H6C5.1,61,4,60.4,4,59.3z"/>
</g>
<g id="Layer_11" display="none">
	<path display="inline" fill="#231F20" d="M42.6,63h6.7c2,0,3.6-1.2,3.6-3.2V35.1c0-0.9,0.7-2.1,1.6-2.1h2c1.5,0,2.8-0.6,3.4-2
		c0.6-1.4,0.3-2.8-0.8-3.9L35.6,3.5c-1.4-1.4-3.8-1.3-5.1,0L6.8,27.2c-1.1,1.1-1.4,2.6-0.8,4c0.6,1.4,1.9,2.2,3.4,2.2
		c0.9,0,1.6,0.7,1.6,1.6v24.7c0,2,1.6,3.2,3.6,3.2h6.7c2,0,3.6-1.2,3.6-3.2V49.1c0-0.9,0.7-2.1,1.6-2.1h10.7c0.9,0,1.6,1.2,1.6,2.1
		v10.7C39,61.8,40.6,63,42.6,63z M37.4,45H26.6c-2,0-3.6,2.1-3.6,4.1v10.7c0,0.9-0.7,1.2-1.6,1.2h-6.7c-0.9,0-1.6-0.3-1.6-1.2V35.1
		c0-2-1.6-3.6-3.6-3.6c-0.7,0-1.3-0.4-1.5-1s-0.1-1.3,0.4-1.8L31.8,5c0.6-0.6,1.7-0.6,2.3,0l23.6,23.6c0.5,0.5,0.6,0.9,0.4,1.6
		S57.3,31,56.6,31h-2c-2,0-3.6,2.1-3.6,4.1v24.7c0,0.9-0.7,1.2-1.6,1.2h-6.7c-0.9,0-1.6-0.3-1.6-1.2V49.1C41,47.1,39.4,45,37.4,45z"
		/>
</g>
<g id="Layer_12" display="none">
	<path display="inline" fill="#231F20" d="M5,40h3.8c0.9,0,1.6,0.6,1.9,1.4l0.7,2.2c0.2,0.7,0.1,1.5-0.5,2l-2.6,2.6
		c-0.8,0.8-1.2,1.8-1.2,2.8s0.4,2.1,1.2,2.8l3.8,3.8c0.8,0.8,1.8,1.2,2.8,1.2s2.1-0.4,2.8-1.2l2.6-2.6c0.5-0.5,1.3-0.7,2-0.5
		l2.2,0.7c0.8,0.3,1.4,1,1.4,1.9V61c0,2.2,1.8,4,4,4h6c2.2,0,4-1.8,4-4v-3.8c0-0.9,0.5-1.6,1.4-1.9l2.2-0.7c0.7-0.2,1.5,0,2,0.5
		l2.6,2.6c0.8,0.8,1.8,1.2,2.8,1.2s2.1-0.4,2.8-1.2l3.8-3.8c0.8-0.8,1.2-1.8,1.2-2.8s-0.4-2.1-1.2-2.8L55,45.6
		c-0.5-0.5-0.7-1.3-0.5-2l0.7-2.2c0.3-0.8,1-1.4,1.9-1.4H61c2.2,0,4-1.8,4-4v-6c0-2.2-1.8-4-4-4h-3.8c-0.9,0-1.6-0.6-1.9-1.4
		l-0.7-2.2c-0.2-0.7-0.1-1.5,0.5-2l2.6-2.6c0.8-0.8,1.2-1.8,1.2-2.8s-0.4-2.1-1.2-2.8l-3.8-3.8c-0.8-0.8-1.8-1.2-2.8-1.2
		s-2.1,0.4-2.8,1.2L45.6,11c-0.5,0.5-1.3,0.7-2,0.5l-2.2-0.7c-0.8-0.3-1.4-1-1.4-1.9V5c0-2.2-1.8-4-4-4h-6c-2.2,0-4,1.8-4,4v3.8
		c0,0.9-0.5,1.6-1.4,1.9l-2.2,0.7c-0.7,0.2-1.5,0-2-0.5l-2.6-2.6c-0.8-0.8-1.8-1.2-2.8-1.2s-2.1,0.4-2.8,1.2l-3.8,3.8
		c-0.8,0.8-1.2,1.8-1.2,2.8s0.4,2.1,1.2,2.8l2.6,2.6c0.5,0.5,0.7,1.3,0.5,2l-0.7,2.2c-0.3,0.8-1,1.4-1.9,1.4H5c-2.2,0-4,1.8-4,4v6
		C1,38.2,2.8,40,5,40z M3,30c0-1.1,0.9-2,2-2h3.8c1.7,0,3.3-1.1,3.8-2.7l0.7-2.2c0.5-1.4,0.1-3-1-4.1l-2.6-2.6
		C9.5,16,9.2,15.5,9.2,15s0.2-1,0.6-1.4l3.8-3.8c0.8-0.8,2.1-0.8,2.8,0l2.6,2.6c1.1,1.1,2.7,1.4,4.1,1l2.2-0.7
		c1.6-0.5,2.7-2.1,2.7-3.8V5c0-1.1,0.9-2,2-2h6c1.1,0,2,0.9,2,2v3.8c0,1.7,1.1,3.3,2.7,3.8l2.2,0.7c1.4,0.5,3,0.1,4.1-1l2.6-2.6
		c0.8-0.8,2.1-0.8,2.8,0l3.8,3.8c0.4,0.4,0.6,0.9,0.6,1.4s-0.2,1-0.6,1.4L53.6,19c-1.1,1.1-1.4,2.6-1,4.1l0.7,2.2
		c0.5,1.6,2.1,2.7,3.8,2.7H61c1.1,0,2,0.9,2,2v6c0,1.1-0.9,2-2,2h-3.8c-1.7,0-3.3,1.1-3.8,2.7l-0.7,2.2c-0.5,1.4-0.1,3,1,4.1
		l2.6,2.6c0.4,0.4,0.6,0.9,0.6,1.4s-0.2,1-0.6,1.4l-3.8,3.8c-0.8,0.8-2.1,0.8-2.8,0L47,53.6c-1.1-1.1-2.7-1.4-4.1-1l-2.2,0.7
		c-1.6,0.5-2.7,2.1-2.7,3.8V61c0,1.1-0.9,2-2,2h-6c-1.1,0-2-0.9-2-2v-3.8c0-1.7-1.1-3.3-2.7-3.8l-2.2-0.7c-0.4-0.1-0.8-0.2-1.3-0.2
		c-1.1,0-2.1,0.4-2.8,1.2l-2.6,2.6c-0.8,0.8-2.1,0.8-2.8,0l-3.8-3.8C9.5,52,9.2,51.5,9.2,51s0.2-1,0.6-1.4l2.6-2.6
		c1.1-1.1,1.4-2.6,1-4.1l-0.7-2.2c-0.5-1.6-2.1-2.7-3.8-2.7H5c-1.1,0-2-0.9-2-2V30z"/>
	<path display="inline" fill="#231F20" d="M33,40L33,40c0.5,0,1.1-0.1,1.6-0.2c2.6-0.6,4.7-2.6,5.2-5.2c0.5-2.1,0-4.3-1.4-6
		c-1.7-2.1-4.4-3-7.1-2.4c-2.6,0.6-4.7,2.6-5.2,5.2c-0.5,2.1,0,4.3,1.4,6C28.9,39,30.9,40,33,40z M28.1,31.8
		c0.4-1.8,1.9-3.3,3.7-3.7C32.2,28,32.6,28,33,28c1.5,0,2.9,0.7,3.9,1.9c1,1.2,1.3,2.8,1,4.3c-0.4,1.8-1.9,3.3-3.7,3.7
		C33.8,38,33.4,38,33,38h0c-1.5,0-2.9-0.7-3.9-1.9C28.1,34.9,27.8,33.4,28.1,31.8z"/>
</g>
<g id="Layer_13" display="none">
	<g display="inline">
		<path fill="#231F20" d="M64,58c0.6,0,1-0.4,1-1c0-13.1-4.6-25.9-13-35.9C41.3,8.3,25.7,1,9,1C8.5,1,8,1.4,8,2s0.4,1,1,1
			c16,0,31.1,7.1,41.4,19.4C58.6,32,63,44.3,63,57C63,57.5,63.5,58,64,58z"/>
		<path fill="#231F20" d="M52.7,58c0.6,0,1-0.4,1-1c0-24.7-20.1-44.7-44.7-44.7c-0.6,0-1,0.4-1,1s0.4,1,1,1
			c23.6,0,42.7,19.2,42.7,42.7C51.7,57.5,52.2,58,52.7,58z"/>
		<path fill="#231F20" d="M40.5,57c0,0.6,0.4,1,1,1s1-0.4,1-1c0-18.4-15-33.4-33.4-33.4c-0.6,0-1,0.4-1,1s0.4,1,1,1
			C26.4,25.5,40.5,39.6,40.5,57z"/>
		<path fill="#231F20" d="M8,35.8c0,0.6,0.4,1,1,1c11.1,0,20.2,9,20.2,20.2c0,0.6,0.4,1,1,1s1-0.4,1-1c0-12.2-9.9-22.2-22.2-22.2
			C8.5,34.8,8,35.3,8,35.8z"/>
		<path fill="#231F20" d="M9,65c4.4,0,8.1-3.6,8.1-8.1s-3.6-8.1-8.1-8.1S1,52.5,1,57S4.6,65,9,65z M9,50.9c3.3,0,6.1,2.7,6.1,6.1
			S12.4,63,9,63C5.7,63,3,60.3,3,57S5.7,50.9,9,50.9z"/>
	</g>
</g>
<g id="Layer_14">
	<path fill="#231F20" d="M44.1,33.6c3-3.2,4.9-7.6,4.9-12.6c0-9.6-7.2-17.5-16-17.5S17,11.4,17,21c0,5,1.9,9.4,4.9,12.6
		c-4.4,0.7-8.9,4.3-8.9,8.9v10.6c0,5,4,9.9,9,9.9h22c5,0,9-4.9,9-9.9V42.5C53,37.7,48.5,34.1,44.1,33.6z M19,21
		c0-8.5,6.3-15.5,14-15.5s14,7,14,15.5s-6.3,15.5-14,15.5S19,29.5,19,21z M51,53.1c0,3.9-3.1,7.9-7,7.9H22c-3.9,0-7-4-7-7.9V42.5
		c0-3.9,4.6-7,8.4-7c0.2,0,0.3-0.1,0.5-0.1c2.6,2,5.7,3.1,9.1,3.1c3.5,0,6.7-1.2,9.3-3.3c0.2,0.2,0.4,0.3,0.7,0.3c3.7,0,8,3.1,8,7
		V53.1z"/>
</g>
</svg>
